<svg width="26" height="32" viewBox="0 0 26 32" fill="none" xmlns="http://www.w3.org/2000/svg">
<path d="M18.1348 0H1.55084C1.08913 0 0.714844 0.374286 0.714844 1.10057V31.4286C0.714844 31.6257 1.08913 32 1.55084 32H24.4503C24.912 32 25.2863 31.6257 25.2863 31.4286V7.416C25.2863 7.01829 25.2331 6.89029 25.1394 6.796L18.4903 0.146857C18.396 0.0531429 18.268 0 18.1348 0Z" fill="#E9E9E0"/>
<path d="M18.4297 0.0861816V6.85704H25.2005L18.4297 0.0861816Z" fill="#D9D7CA"/>
<path d="M8.15071 19.0424C7.95185 19.0424 7.76099 18.9778 7.59814 18.8561C7.00328 18.4098 6.92328 17.9132 6.96099 17.5749C7.06499 16.6447 8.21528 15.6709 10.381 14.6789C11.2404 12.7955 12.0581 10.4749 12.5456 8.53608C11.9753 7.29494 11.421 5.68465 11.825 4.74008C11.9667 4.40922 12.1433 4.15551 12.473 4.0458C12.6033 4.00237 12.9324 3.94751 13.0536 3.94751C13.3416 3.94751 13.5947 4.31837 13.7741 4.54694C13.9427 4.7618 14.325 5.21722 13.561 8.43379C14.3313 10.0247 15.4227 11.6452 16.4684 12.7549C17.2176 12.6195 17.8621 12.5504 18.3873 12.5504C19.2821 12.5504 19.8244 12.7589 20.0456 13.1887C20.2284 13.5441 20.1536 13.9595 19.8227 14.4229C19.5044 14.8681 19.0656 15.1035 18.5541 15.1035C17.8593 15.1035 17.0501 14.6647 16.1478 13.7978C14.5267 14.1367 12.6336 14.7412 11.1033 15.4104C10.6256 16.4241 10.1679 17.2407 9.74157 17.8395C9.15585 18.6595 8.65071 19.0424 8.15071 19.0424ZM9.67185 16.1132C8.45071 16.7995 7.95299 17.3635 7.91699 17.6812C7.91128 17.7338 7.89585 17.8721 8.16328 18.0767C8.24842 18.0498 8.74557 17.8229 9.67185 16.1132ZM17.4644 13.5749C17.9301 13.9332 18.0438 14.1144 18.3484 14.1144C18.4821 14.1144 18.8633 14.1087 19.0399 13.8624C19.125 13.7429 19.1581 13.6664 19.1713 13.6252C19.101 13.5881 19.0078 13.5127 18.4999 13.5127C18.2113 13.5132 17.8484 13.5258 17.4644 13.5749ZM13.1959 9.8138C12.7873 11.2275 12.2479 12.7538 11.6679 14.1361C12.8621 13.6727 14.1604 13.2681 15.3799 12.9818C14.6084 12.0858 13.8376 10.9669 13.1959 9.8138ZM12.849 4.97837C12.793 4.99722 12.089 5.98237 12.9039 6.81608C13.4461 5.60751 12.8736 4.97037 12.849 4.97837Z" fill="#CC4B4C"/>
<path d="M24.4503 31.9999H1.55084C1.08913 31.9999 0.714844 31.6256 0.714844 31.1639V22.2856H25.2863V31.1639C25.2863 31.6256 24.912 31.9999 24.4503 31.9999Z" fill="#CC4B4C"/>
<path d="M6.93576 30.2858H5.99805V24.5281H7.65405C7.89862 24.5281 8.1409 24.5669 8.38033 24.6452C8.61976 24.7235 8.83462 24.8406 9.0249 24.9966C9.21519 25.1526 9.3689 25.3418 9.48605 25.5629C9.60319 25.7841 9.66205 26.0326 9.66205 26.3092C9.66205 26.6012 9.61233 26.8652 9.51347 27.1024C9.41462 27.3395 9.27633 27.5389 9.09919 27.7001C8.92205 27.8612 8.70833 27.9864 8.45862 28.0749C8.2089 28.1635 7.93233 28.2075 7.63062 28.2075H6.93519V30.2858H6.93576ZM6.93576 25.2389V27.5201H7.79519C7.90948 27.5201 8.02262 27.5006 8.13519 27.4612C8.24719 27.4224 8.35005 27.3584 8.44376 27.2698C8.53748 27.1812 8.6129 27.0578 8.67005 26.8989C8.72719 26.7401 8.75576 26.5435 8.75576 26.3092C8.75576 26.2155 8.74262 26.1069 8.7169 25.9852C8.69062 25.8629 8.63748 25.7458 8.5569 25.6338C8.47576 25.5218 8.36262 25.4281 8.2169 25.3526C8.07119 25.2772 7.87805 25.2395 7.63862 25.2395H6.93576V25.2389Z" fill="white"/>
<path d="M15.4122 27.2469C15.4122 27.7206 15.3614 28.1258 15.2597 28.4618C15.158 28.7978 15.0294 29.0789 14.8728 29.3058C14.7162 29.5326 14.5408 29.7109 14.3454 29.8412C14.15 29.9715 13.9614 30.0686 13.7791 30.1344C13.5968 30.1995 13.43 30.2412 13.2791 30.2595C13.1282 30.2766 13.0162 30.2858 12.9431 30.2858H10.7637V24.5281H12.498C12.9825 24.5281 13.4082 24.6052 13.7751 24.7584C14.142 24.9115 14.4471 25.1166 14.6894 25.3715C14.9317 25.6264 15.1122 25.9172 15.2322 26.2424C15.3522 26.5681 15.4122 26.9029 15.4122 27.2469ZM12.6311 29.5984C13.2665 29.5984 13.7248 29.3955 14.006 28.9892C14.2871 28.5829 14.4277 27.9944 14.4277 27.2235C14.4277 26.9841 14.3991 26.7469 14.342 26.5126C14.2842 26.2784 14.174 26.0664 14.01 25.8761C13.846 25.6858 13.6231 25.5321 13.342 25.4149C13.0608 25.2978 12.6962 25.2389 12.2482 25.2389H11.7014V29.5984H12.6311Z" fill="white"/>
<path d="M17.7246 25.2389V27.0515H20.1309V27.6921H17.7246V30.2858H16.7715V24.5281H20.3726V25.2389H17.7246Z" fill="white"/>
</svg>
