<svg width="48" height="48" viewBox="0 0 48 48" fill="none" xmlns="http://www.w3.org/2000/svg">
<path d="M37.9354 29.7342C36.9527 28.711 35.7674 28.164 34.5112 28.164C33.2651 28.164 32.0697 28.7009 31.0465 29.7241L28.4677 32.2947C28.0981 32.6632 27.5282 32.7508 27.0651 32.5101V32.5101C26.7004 32.3277 26.356 32.1555 26.0622 31.9731C23.0635 30.0685 20.3383 27.5865 17.7246 24.3751C17.3203 23.864 16.9583 23.3788 16.6328 22.9105C15.5105 21.2962 15.9587 19.1491 17.3396 17.7496V17.7496C17.6233 17.4659 17.9069 17.1721 18.1906 16.8885C20.318 14.761 20.318 12.0055 18.1906 9.87801L15.4249 7.11232C15.1108 6.79827 14.7867 6.47408 14.4827 6.1499C13.8749 5.52179 13.2367 4.87343 12.5782 4.26558C11.5955 3.29303 10.4203 2.77637 9.18437 2.77637C7.94842 2.77637 6.75299 3.29303 5.73992 4.26558C5.72979 4.27571 5.72979 4.27571 5.71966 4.28585L2.27521 7.76069C0.978478 9.05742 0.238934 10.6378 0.0768427 12.4715C-0.166295 15.4296 0.704948 18.1852 1.37358 19.9885C3.01475 24.4156 5.46639 28.5185 9.12358 32.9153C13.5608 38.2137 18.8997 42.3976 24.9984 45.3457C27.3285 46.4499 30.4386 47.7568 33.9135 47.9797C34.1262 47.9898 34.3491 47.9999 34.5517 47.9999C36.8795 47.9999 38.8363 47.168 40.3725 45.5141C40.3888 45.4966 40.403 45.4767 40.4199 45.4597V45.4597C40.4335 45.446 40.4439 45.4293 40.4562 45.4145C40.9787 44.7851 41.5798 44.2139 42.2105 43.6032C42.6462 43.1878 43.0919 42.7522 43.5275 42.2963C44.5305 41.2529 45.0573 40.0372 45.0573 38.7911C45.0573 37.5349 44.5204 36.3293 43.4971 35.3163L37.9354 29.7342ZM41.5622 40.4019C41.552 40.412 41.552 40.4019 41.5622 40.4019C41.1671 40.8274 40.7619 41.2123 40.3262 41.6378C39.6677 42.2659 38.9991 42.9244 38.371 43.664C37.3478 44.7581 36.1422 45.2748 34.5618 45.2748C34.4099 45.2748 34.2478 45.2748 34.0958 45.2646C31.087 45.0722 28.2909 43.897 26.1939 42.8941C20.4599 40.1182 15.4249 36.1774 11.2409 31.1829C7.78633 27.0192 5.47652 23.1695 3.94678 19.0362C3.00462 16.5136 2.66018 14.5483 2.81214 12.6944C2.91345 11.5091 3.36933 10.5264 4.21018 9.68552L7.66476 6.23095C8.16116 5.76493 8.68796 5.51166 9.20463 5.51166C9.84287 5.51166 10.3595 5.89663 10.6837 6.22081C10.6938 6.23095 10.704 6.24108 10.7141 6.25121C11.3321 6.82866 11.9197 7.42637 12.5376 8.06461C12.8517 8.38879 13.1759 8.71297 13.5001 9.04729L16.2657 11.813C17.3396 12.8868 17.3396 13.8796 16.2657 14.9535C15.972 15.2473 15.6883 15.5411 15.3945 15.8247C14.5435 16.696 13.7331 17.5064 12.8517 18.2966V18.2966C12.8179 18.3304 12.7833 18.3647 12.7503 18.3992C11.9362 19.2523 12.0955 20.081 12.2742 20.647C12.2844 20.6774 12.2945 20.7078 12.3046 20.7381C13.0239 22.4806 14.037 24.1218 15.5769 26.077L15.587 26.0872C18.3831 29.5316 21.3311 32.2163 24.5831 34.2728C24.9984 34.5362 25.4239 34.7489 25.8292 34.9516C26.1939 35.1339 26.5383 35.3061 26.8321 35.4885C26.8726 35.5087 26.9131 35.5391 26.9537 35.5594C27.2981 35.7316 27.6223 35.8127 27.9566 35.8127C28.7975 35.8127 29.3243 35.2859 29.4965 35.1136L32.9612 31.6489C33.3056 31.3045 33.8527 30.8891 34.4909 30.8891C35.119 30.8891 35.6357 31.2842 35.9498 31.6287C35.9599 31.6388 35.9599 31.6388 35.97 31.6489L41.552 37.231C42.5955 38.2643 42.5955 39.328 41.5622 40.4019Z" fill="#15B9D9"/>
<path d="M25.9402 11.4179C28.5944 11.8637 31.0056 13.1199 32.9304 15.0447C34.8552 16.9696 36.1013 19.3807 36.5572 22.0349C36.6686 22.7036 37.2461 23.1696 37.9046 23.1696C37.9856 23.1696 38.0565 23.1594 38.1376 23.1493C38.8873 23.0277 39.3837 22.3186 39.2621 21.5689C38.715 18.3575 37.1954 15.4297 34.8755 13.1098C32.5556 10.7898 29.6278 9.2702 26.4163 8.72314C25.6667 8.60158 24.9677 9.09798 24.836 9.83752C24.7043 10.5771 25.1905 11.2963 25.9402 11.4179Z" fill="#15B9D9"/>
<path d="M47.9447 21.1738C47.043 15.8856 44.5509 11.0735 40.7214 7.24406C36.892 3.41464 32.0799 0.922485 26.7917 0.0208505C26.0521 -0.110849 25.3531 0.395688 25.2214 1.13523C25.0999 1.8849 25.5963 2.58393 26.3459 2.71562C31.0669 3.51595 35.3724 5.75484 38.7966 9.1689C42.2208 12.5931 44.4495 16.8986 45.2499 21.6196C45.3613 22.2882 45.9388 22.7542 46.5973 22.7542C46.6783 22.7542 46.7492 22.7441 46.8303 22.7339C47.5698 22.6225 48.0764 21.9134 47.9447 21.1738Z" fill="#15B9D9"/>
</svg>
