<svg width="222" height="228" viewBox="0 0 222 228" fill="none" xmlns="http://www.w3.org/2000/svg">
<path d="M64.419 28.3303H31.289C14.0094 28.3303 0 42.7184 0 60.465V94.4904C0 112.237 14.0094 126.625 31.289 126.625H34.5665C37.3146 126.625 39.8889 128.018 41.4477 130.348C42.9995 132.679 43.3403 135.647 42.3469 138.28L23.6603 188.015C22.667 190.651 23.0078 193.618 24.5596 195.946C26.1184 198.276 28.6926 199.669 31.4408 199.669H53.4404C56.5437 199.669 59.3937 197.896 60.8293 195.074L87.39 142.96C92.8571 132.232 95.7141 120.302 95.7141 108.193V60.4645C95.715 42.7184 81.6986 28.3303 64.419 28.3303Z" fill="#15B9D9" fill-opacity="0.08"/>
<path d="M190.712 28.3303H157.581C140.302 28.3303 126.293 42.7184 126.293 60.465V94.4904C126.293 112.237 140.302 126.625 157.581 126.625H160.852C163.6 126.625 166.181 128.018 167.733 130.348C169.292 132.679 169.625 135.647 168.639 138.28L149.946 188.015C148.953 190.651 149.293 193.619 150.852 195.946C152.404 198.277 154.978 199.67 157.734 199.67H179.726C182.83 199.67 185.68 197.897 187.123 195.075L213.676 142.96C219.143 132.232 222 120.302 222 108.193V60.4645C222 42.7184 207.991 28.3303 190.712 28.3303Z" fill="#15B9D9" fill-opacity="0.08"/>
</svg>
