<svg width="48" height="38" viewBox="0 0 48 38" fill="none" xmlns="http://www.w3.org/2000/svg">
<path d="M13.9284 0.964355H6.76519C3.02906 0.964355 0 3.99342 0 7.72954V14.8928C0 18.6289 3.02906 21.6579 6.76519 21.6579H7.47384C8.06803 21.6579 8.62463 21.9511 8.96166 22.4418C9.29719 22.9325 9.37088 23.5573 9.15609 24.1116L5.11575 34.5821C4.90097 35.1371 4.97466 35.7618 5.31019 36.2518C5.64722 36.7425 6.20381 37.0357 6.798 37.0357H11.5547C12.2257 37.0357 12.8419 36.6625 13.1523 36.0684L18.8951 25.0968C20.0772 22.8384 20.6949 20.3267 20.6949 17.7776V7.72945C20.6951 3.99342 17.6646 0.964355 13.9284 0.964355Z" fill="#15B9D9" fill-opacity="0.13"/>
<path d="M41.2331 0.964355H34.0697C30.3336 0.964355 27.3047 3.99342 27.3047 7.72954V14.8928C27.3047 18.6289 30.3337 21.6579 34.0697 21.6579H34.7768C35.371 21.6579 35.9291 21.9511 36.2647 22.4418C36.6018 22.9325 36.6739 23.5573 36.4607 24.1116L32.4188 34.5822C32.2041 35.1372 32.2778 35.7619 32.6148 36.2519C32.9503 36.7425 33.5069 37.0358 34.1027 37.0358H38.8579C39.5288 37.0358 40.1451 36.6626 40.4571 36.0685L46.1983 25.0969C47.3804 22.8384 47.9981 20.3268 47.9981 17.7776V7.72945C47.9981 3.99342 44.9692 0.964355 41.2331 0.964355Z" fill="#15B9D9" fill-opacity="0.13"/>
</svg>
