<svg width="169" height="154" viewBox="0 0 169 154" fill="none" xmlns="http://www.w3.org/2000/svg">
<g clip-path="url(#clip0_204_1836)" filter="url(#filter0_d_204_1836)">
<path d="M11.2215 22.9548L12.2278 24.646C9.62516 26.1955 7.41468 28.1402 5.66062 30.4304L4.09933 29.2356C6.0105 26.7456 8.40298 24.6332 11.2215 22.9548ZM22.0952 19.1267C24.5072 18.7569 26.9761 18.654 29.4265 18.8216L29.2919 20.7836C26.9828 20.6263 24.6607 20.7227 22.3932 21.0703C21.7414 21.1702 21.0854 21.2947 20.4474 21.4325L20.0251 19.5119C20.7055 19.3637 21.4005 19.2332 22.0952 19.1267ZM33.6645 72.235L35.606 72.5485C35.1265 75.5181 35.0871 78.4922 35.5005 81.3968L33.5533 81.6714C33.1145 78.5749 33.1507 75.3976 33.6645 72.235ZM38.1678 89.78C38.7418 90.8664 39.4002 91.904 40.1271 92.8671C41.1903 94.278 42.3877 95.4965 43.6873 96.4956L42.4881 98.0536C41.0523 96.9476 39.7312 95.6002 38.5588 94.0502C37.7714 93.0045 37.0551 91.876 36.431 90.6974L38.1678 89.78ZM41.5161 55.3125L43.047 56.5438C41.1176 58.9408 39.5135 61.4796 38.2759 64.0901L36.4971 63.2483C37.8053 60.4992 39.4935 57.8316 41.5161 55.3125ZM38.6424 20.8042C41.5078 21.8549 44.3202 23.2892 47.0022 25.0711L45.9149 26.7078C43.3617 25.01 40.688 23.6463 37.9666 22.6494L38.6424 20.8042ZM51.5561 99.3838C52.1559 99.3877 52.7596 99.3391 53.3529 99.2481C55.4526 98.9262 57.5124 98.0312 59.4756 96.5838L60.641 98.1668C58.4196 99.8056 56.0667 100.821 53.6469 101.192C52.9522 101.299 52.2452 101.351 51.5455 101.347L51.5561 99.3838ZM51.0397 46.3266C52.5392 45.2419 54.1158 44.2172 55.7307 43.2865L56.7109 44.9898C55.1548 45.8875 53.6359 46.8713 52.1941 47.9152C51.2124 48.625 50.2528 49.3753 49.3398 50.1424L48.0747 48.6386C49.027 47.8415 50.0226 47.0657 51.0397 46.3266ZM54.232 31.0092C56.3809 33.1444 58.4135 35.5371 60.2715 38.1204L58.6739 39.2681C56.877 36.7714 54.9128 34.46 52.8435 32.4005L54.232 31.0092ZM68.5022 82.3493L68.6162 81.8684L70.5307 82.3179L70.4112 82.8156C69.7121 85.6551 68.52 88.5102 66.963 91.0698L65.2806 90.0495C66.7355 87.6573 67.8491 84.994 68.5022 82.3493ZM65.1375 46.0707C66.5704 48.851 67.796 51.7389 68.7735 54.649L66.9086 55.2784C65.9612 52.4597 64.7738 49.6657 63.3859 46.9704L65.1375 46.0707ZM73.1543 36.7925L73.5415 38.7185C70.565 39.3146 67.6439 40.1419 64.8657 41.1711L64.1834 39.3263C67.0607 38.266 70.0776 37.412 73.1543 36.7925ZM69.166 64.4795L69.0954 64.0189L71.0361 63.7014L71.1103 64.1854C71.5662 67.1594 71.7625 70.1332 71.6988 73.0271L69.7304 72.9814C69.7953 70.1992 69.6046 67.3403 69.166 64.4795ZM82.3968 35.6392C85.4643 35.4805 88.5972 35.5395 91.7026 35.8104L91.5316 37.77C88.5151 37.5055 85.4789 37.4516 82.4985 37.605L82.3968 35.6392ZM100.899 37.2487C103.924 37.9354 106.922 38.83 109.816 39.9123L109.128 41.7554C106.318 40.7041 103.404 39.8326 100.466 39.1685L100.899 37.2487ZM118.285 43.7709C121.034 45.2629 123.67 46.9559 126.126 48.8004L124.945 50.3716C122.566 48.5872 120.01 46.9458 117.348 45.5005L118.285 43.7709ZM133.167 54.8834C135.346 57.0339 137.426 59.3715 139.345 61.8296L137.797 63.0416C135.928 60.6477 133.901 58.3739 131.783 56.2819L133.167 54.8834ZM144.612 69.4826C146.192 72.1006 147.651 74.865 148.943 77.6947L147.155 78.5121C145.893 75.7496 144.469 73.0519 142.926 70.4961L144.612 69.4826ZM152.334 86.3386C153.299 89.2504 154.121 92.2642 154.781 95.2909L152.859 95.7092C152.214 92.7522 151.411 89.8075 150.468 86.9602L152.334 86.3386ZM154.319 104.657L156.275 104.441C156.614 107.513 156.793 110.629 156.808 113.703L154.841 113.713C154.823 110.708 154.652 107.662 154.319 104.657Z" fill="white" fill-opacity="0.21"/>
<path d="M155.761 133.209L147.586 115.321L155.722 117.816L164.582 115.627L155.761 133.209Z" fill="white" fill-opacity="0.21"/>
</g>
<defs>
<filter id="filter0_d_204_1836" x="-0.997559" y="0" width="172.01" height="161.538" filterUnits="userSpaceOnUse" color-interpolation-filters="sRGB">
<feFlood flood-opacity="0" result="BackgroundImageFix"/>
<feColorMatrix in="SourceAlpha" type="matrix" values="0 0 0 0 0 0 0 0 0 0 0 0 0 0 0 0 0 0 127 0" result="hardAlpha"/>
<feOffset dy="4"/>
<feGaussianBlur stdDeviation="2"/>
<feComposite in2="hardAlpha" operator="out"/>
<feColorMatrix type="matrix" values="0 0 0 0 0 0 0 0 0 0 0 0 0 0 0 0 0 0 0.25 0"/>
<feBlend mode="normal" in2="BackgroundImageFix" result="effect1_dropShadow_204_1836"/>
<feBlend mode="normal" in="SourceGraphic" in2="effect1_dropShadow_204_1836" result="shape"/>
</filter>
<clipPath id="clip0_204_1836">
<rect width="133.02" height="145.533" fill="white" transform="translate(146.855) rotate(81.284)"/>
</clipPath>
</defs>
</svg>
